<?xml version="1.0" encoding="UTF-8" standalone="no"?>
<svg width="60px" height="60px" viewBox="0 0 60 60" version="1.1" xmlns="http://www.w3.org/2000/svg" xmlns:xlink="http://www.w3.org/1999/xlink">
    <!-- Generator: Sketch 47.1 (45422) - http://www.bohemiancoding.com/sketch -->
    <title>市场风险</title>
    <desc>Created with Sketch.</desc>
    <defs></defs>
    <g id="Page-1" stroke="none" stroke-width="1" fill="none" fill-rule="evenodd">
        <path d="M29.7140896,60 C15.5125666,60 4,54.7233975 4,48.2142994 C4,45.463215 6.07369969,42.9383067 9.52076899,40.9328333 L11.8698897,44.0645369 C9.60858658,45.2532761 8.28560537,46.679321 8.28560537,48.2142994 C8.28560537,52.3563626 17.8796014,55.7143946 29.7140896,55.7143946 C41.5485777,55.7143946 51.14265,52.3563626 51.14265,48.2142994 C51.14265,46.679321 49.8195926,45.2532761 47.5585944,44.0645369 L49.9074864,40.9328333 C53.3547844,42.9383067 55.4285603,45.463215 55.4285603,48.2142994 C55.4285603,54.7233975 43.9159175,60 29.7140896,60 Z M41.1892269,45.565059 C38.9562054,47.6333463 36.5435847,49.1437023 34.1009291,50.1876797 C32.5608433,50.8448632 31.3152361,51.1997927 30.4055769,51.3653655 C30.1545497,51.4073685 29.9005495,51.4287893 29.6462444,51.4287893 C29.3916343,51.4287893 29.1385489,51.4079783 28.8672444,51.3639171 C27.9837323,51.2016222 26.7387349,50.8448632 25.2081779,50.1870698 C22.7806922,49.1437023 20.3845373,47.6309832 18.1660758,45.5632295 C11.9667025,39.7819045 8.28560537,30.7988963 8.28560537,18.0499465 L8.28560537,10.4153043 C8.28560537,9.19142277 8.79985666,8.02471419 9.69701402,7.19753647 C10.5126809,6.4450647 11.5816619,6.03113281 12.6890632,6.03113281 C12.8066869,6.03113281 12.8888634,6.03204757 12.9872008,6.03951817 L13.0208185,6.04188131 C13.114887,6.05141013 13.6491107,6.07016285 14.2155037,6.07016285 C16.1676919,6.07016285 18.2988694,5.88675214 20.1460119,5.44034603 C20.2117989,5.42426139 20.2778908,5.40611852 20.3439827,5.38828057 C21.5312735,5.05743997 22.8578376,4.32372092 24.2312072,3.30024954 C25.378477,2.44623867 27.3568885,0.631265473 27.2217317,0.722665904 C27.9414243,0.250722561 28.7835432,-0.000304644744 29.6444149,2.77461058e-07 C30.5074209,2.77461058e-07 31.3522079,0.249502872 32.0745686,0.728688118 C32.3583749,0.916215274 34.4931353,2.66745973 35.2465218,3.22638213 C36.2791409,3.99288033 37.219216,4.58427694 38.0819172,4.98624064 C38.5294668,5.19526481 38.9460667,5.34803084 39.3269146,5.43973619 C41.1796981,5.8878956 43.2774866,6.07046777 45.2127517,6.07046777 C45.7740372,6.07046777 46.322516,6.05080029 46.4401398,6.0386034 C46.5393157,6.03113281 46.6206537,6.02998935 46.7433087,6.02998935 C47.8498713,6.02968443 48.9155745,6.44620816 49.728802,7.19662171 C50.6280938,8.02471419 51.14265,9.18936455 51.14265,10.4143895 L51.14265,18.0490317 C51.14265,30.8004209 47.4347198,39.7842676 41.1892269,45.565059 Z M46.8520134,11.4989216 C46.8520134,11.0647123 46.6715757,10.6481886 46.3487393,10.3447148 L46.3478246,10.3423516 C46.047095,10.0588502 45.6465797,9.89922344 45.2249485,9.89922344 C45.1421622,9.89922344 45.1299653,9.90013821 45.163583,9.89625045 C44.9995348,9.91622286 44.4239179,9.9370338 43.8310729,9.9370338 C41.8993907,9.9370338 39.8185254,9.75270832 37.9210707,9.28434782 C37.4133753,9.15864364 36.8889853,8.96334096 36.348282,8.70606285 C35.3965436,8.25401568 34.4150752,7.62336033 33.3573763,6.82263462 C32.5805108,6.23482084 30.7095843,4.66912155 30.5708447,4.57589158 C30.3010648,4.3927858 29.982726,4.29627792 29.6521904,4.29627792 C29.3240178,4.29627792 29.0036208,4.39217595 28.748096,4.56308485 C29.0661299,4.34186379 27.3152666,5.98112557 26.1238593,6.88666828 C24.6596991,7.99917695 23.2139867,8.81537746 21.8084478,9.21436817 C21.7226884,9.23937179 21.6363192,9.26140242 21.5508648,9.2828232 C19.6573741,9.7506501 17.5473124,9.93619526 15.6013751,9.93619526 C15.0137901,9.93619526 14.4560873,9.91622286 14.3098771,9.90013821 C14.2967655,9.89922344 14.2899047,9.89922344 14.2103963,9.89922344 C13.7864019,9.89922344 13.3826087,10.0594601 13.0797447,10.3438 C12.7575944,10.6463591 12.5776903,11.0635689 12.5776903,11.4986166 L12.5776903,18.5924793 C12.5776903,29.7599501 15.6615211,37.4396446 20.8010611,42.3305967 C22.6100883,44.05234 24.5625814,45.3083145 26.5332936,46.1724641 C27.7544308,46.7076025 28.7213391,46.9904941 29.3439902,47.1078129 C29.4449195,47.1242025 29.5473734,47.1328165 29.6515805,47.1328165 C29.7546442,47.1328165 29.8579366,47.1247361 29.9398082,47.1107859 C30.5916557,46.9886646 31.5623755,46.7066878 32.7918981,46.1716255 C34.7774753,45.3065612 36.7446046,44.049367 38.567887,42.3273188 C43.7462283,37.4363667 46.8523184,29.7585018 46.8523184,18.5924793 L46.8523184,11.4989216 L46.8520134,11.4989216 Z M29.7140896,38.5714396 C28.5307627,38.5714396 27.571325,37.6123068 27.571325,36.428675 C27.571325,35.2453481 28.5307627,34.2859104 29.7140896,34.2859104 C30.8977976,34.2859104 31.8572353,35.2453481 31.8572353,36.428675 C31.8572353,37.6123068 30.8977976,38.5714396 29.7140896,38.5714396 Z M29.7140896,30.0000001 C28.5307627,30.0000001 27.571325,29.0408673 27.571325,27.8572356 L27.571325,15.0001146 C27.571325,13.8164828 28.5307627,12.85735 29.7140896,12.85735 C30.8977976,12.85735 31.8572353,13.8167877 31.8572353,15.0001146 L31.8572353,27.8572356 C31.8572353,29.0408673 30.8977976,30.0000001 29.7140896,30.0000001 Z M49.7327774,7.1991684 C49.7315774,7.1983684 49.7304774,7.1979684 49.7292774,7.1971684 C49.7284774,7.1963684 49.7280774,7.1956684 49.7272774,7.1948684 L49.7327774,7.1991684 Z" id="Fill-1-Copy" fill="#FFEBC8"></path>
    </g>
</svg>