<?xml version="1.0" encoding="UTF-8" standalone="no"?>
<svg width="60px" height="60px" viewBox="0 0 60 60" version="1.1" xmlns="http://www.w3.org/2000/svg" xmlns:xlink="http://www.w3.org/1999/xlink">
    <!-- Generator: Sketch 47.1 (45422) - http://www.bohemiancoding.com/sketch -->
    <title>绩效评估</title>
    <desc>Created with Sketch.</desc>
    <defs></defs>
    <g id="Page-1" stroke="none" stroke-width="1" fill="none" fill-rule="evenodd">
        <path d="M27.3927577,19.781532 L22.0445682,14.4333426 C21.1890251,13.5777159 21.1890251,12.294234 22.0445682,11.4383565 C22.9001114,10.5827298 24.1840111,10.5827298 25.0395543,11.4383565 L29.5322006,15.9309192 L34.024429,11.4383565 C34.88039,10.5827298 36.1638719,10.5827298 37.019415,11.4383565 C37.8752925,12.294234 37.8752925,13.5777159 37.019415,14.4333426 L31.6712256,19.781532 L31.6712256,21.4929526 L35.9496936,21.4929526 C37.2335933,21.4929526 38.0891365,22.3484958 38.0891365,23.6323955 C38.0891365,24.9158774 37.2335933,25.7714206 35.9496936,25.7714206 L31.6712256,25.7714206 L31.6712256,30.0498886 C31.6712256,31.3337883 30.8156825,32.1893315 29.5322006,32.1893315 C28.2483008,32.1893315 27.3927577,31.3337883 27.3927577,30.0498886 L27.3927577,25.7714206 L23.1142897,25.7714206 C21.8307242,25.7714206 20.9748468,24.9158774 20.9748468,23.6323955 C20.9748468,22.3484958 21.8307242,21.4929526 23.1142897,21.4929526 L27.3927577,21.4929526 L27.3927577,19.781532 Z M18.8358217,36.4677994 L40.2285794,36.4677994 C41.5120613,36.4677994 42.3676045,37.3236769 42.3676045,38.6072423 C42.3676045,39.8907242 41.5120613,40.7462674 40.2285794,40.7462674 L18.8358217,40.7462674 C17.551922,40.7462674 16.6963788,39.8907242 16.6963788,38.6072423 C16.6963788,37.3236769 17.551922,36.4677994 18.8358217,36.4677994 Z M18.8358217,45.0251532 L40.2285794,45.0251532 C41.5120613,45.0251532 42.3676045,45.8806964 42.3676045,47.1641783 C42.3676045,48.4477437 41.5120613,49.3036212 40.2285794,49.3036212 L18.8358217,49.3036212 C17.551922,49.3036212 16.6963788,48.4477437 16.6963788,47.1641783 C16.6963788,45.8806964 17.551922,45.0251532 18.8358217,45.0251532 Z M12.4179109,4.37866295 C11.1343454,4.37866295 10.278468,5.23454039 10.278468,6.51810585 L10.278468,53.5820891 C10.278468,54.865571 11.1343454,55.721532 12.4179109,55.721532 L46.6460724,55.721532 C47.9299721,55.721532 48.7855153,54.865571 48.7855153,53.5820891 L48.7855153,6.51810585 C48.7855153,5.23454039 47.9299721,4.37866295 46.6460724,4.37866295 L12.4179109,4.37866295 Z M12.4179109,0.100194986 L46.6460724,0.100194986 C50.2831755,0.100194986 53.0639833,2.88133705 53.0639833,6.51810585 L53.0639833,53.5820891 C53.0639833,57.2188579 50.2831755,60 46.6460724,60 L12.4179109,60 C8.78114206,60 6,57.2188579 6,53.5820891 L6,6.51810585 C6,2.88133705 8.78114206,0.100194986 12.4179109,0.100194986 Z" id="业绩管理-copy" fill="#FFEBC8"></path>
    </g>
</svg>