<?xml version="1.0" encoding="UTF-8" standalone="no"?>
<svg width="60px" height="60px" viewBox="0 0 60 60" version="1.1" xmlns="http://www.w3.org/2000/svg" xmlns:xlink="http://www.w3.org/1999/xlink">
    <!-- Generator: Sketch 47.1 (45422) - http://www.bohemiancoding.com/sketch -->
    <title>行情联动</title>
    <desc>Created with Sketch.</desc>
    <defs>
        <polygon id="path-1" points="0.00432432432 0.0121801802 0.00432432432 55.928 54.7001622 55.928 54.7001622 0.0121801802"></polygon>
    </defs>
    <g id="Page-1" stroke="none" stroke-width="1" fill="none" fill-rule="evenodd">
        <g id="联动-copy" transform="translate(3.000000, 2.000000)">
            <mask id="mask-2" fill="white">
                <use xlink:href="#path-1"></use>
            </mask>
            <g id="Clip-2"></g>
            <path d="M23.7032793,35.0899459 C23.0087207,35.0899459 22.3141622,34.7424865 21.6196757,34.3950991 C16.4099459,29.1856577 16.4099459,20.5032072 21.6196757,14.9463063 L32.0385586,4.17974775 C34.4699099,1.74868468 37.9428468,0.0121801802 41.4158559,0.0121801802 C44.8887928,0.0121801802 48.3618018,1.4012973 50.7930811,4.17974775 C56.0025225,9.38947748 56.0025225,18.0719279 50.7930811,23.6287568 L45.9307387,28.4910991 C44.8887928,29.533045 43.1522883,29.533045 41.7632432,28.4910991 C40.7212973,27.4491532 40.7212973,25.3652613 41.7632432,24.3233153 L46.6252973,19.4612613 C49.7511351,16.3354234 49.7511351,11.4730811 46.6252973,8.34753153 C45.2361802,6.95812613 43.1522883,5.91646847 41.0683964,5.91646847 C38.9847928,5.91646847 36.9009009,6.61102703 35.5118559,8.34753153 L25.0926126,19.1138739 C21.9667748,22.2397117 21.9667748,27.1017658 25.0926126,30.2276036 C26.1345586,31.2695495 26.1345586,33.3531532 25.0926126,34.3950991 C24.7452252,34.7424865 24.3980541,35.0899459 23.7032793,35.0899459 Z" id="Fill-1" fill="#FFEBC8" mask="url(#mask-2)"></path>
            <path d="M13.2843243,55.928 C9.81138739,55.928 6.33837838,54.5386667 3.9070991,51.7602162 C-1.30234234,46.5507748 -1.30234234,37.868036 3.9070991,32.3114955 L8.76944144,27.4491532 C9.81138739,26.7545946 11.5478919,26.7545946 12.9369369,27.7965405 C13.9788829,28.8381982 13.9788829,30.9220901 12.9369369,31.964036 L8.07488288,36.8263784 C4.94904505,39.9519279 4.94904505,44.8142703 8.07488288,47.9398919 C9.46392793,49.3292252 11.5478919,50.3711712 13.6317838,50.3711712 C15.7153874,50.3711712 17.7992793,49.6763243 19.1883243,47.9398919 L29.6075676,37.1735495 C32.7334054,34.048 32.7334054,29.1856577 29.6075676,26.0598198 C28.5656216,25.0180901 28.5656216,22.9341982 29.6075676,21.8922523 C30.6495135,20.8503063 32.3859459,20.8503063 33.7750631,21.8922523 C38.9847928,27.1017658 38.9847928,35.7844324 33.7750631,41.3413333 L23.3561081,52.1076757 C20.2302703,54.5386667 17.1047207,55.928 13.2843243,55.928 Z" id="Fill-3" fill="#FFEBC8" mask="url(#mask-2)"></path>
        </g>
    </g>
</svg>