<?xml version="1.0" encoding="UTF-8" standalone="no"?>
<svg width="60px" height="60px" viewBox="0 0 60 60" version="1.1" xmlns="http://www.w3.org/2000/svg" xmlns:xlink="http://www.w3.org/1999/xlink">
    <!-- Generator: Sketch 47.1 (45422) - http://www.bohemiancoding.com/sketch -->
    <title>风控提醒</title>
    <desc>Created with Sketch.</desc>
    <defs></defs>
    <g id="Page-1" stroke="none" stroke-width="1" fill="none" fill-rule="evenodd">
        <path d="M32.552495,1.93546195 L32.5436593,1.93546195 C32.5436593,0.830702775 31.597942,0 30.5286009,0 C29.3709789,0 28.451844,0.830702775 28.451844,1.93546195 L28.451844,7.00848827 L32.552495,7.00848827 L32.552495,1.93546195 Z M56.8387703,18.2766693 C57.6871443,17.7993173 58.1379139,16.7034693 57.5724318,15.7225604 C57.2187035,15.1656119 56.6532215,14.8122612 56.0169031,14.7414249 C55.6635524,14.7414249 55.248201,14.7414249 54.8062671,14.856515 L51.4389001,17.3839659 L53.454034,20.786449 L56.8387703,18.2766693 Z M16.0789038,11.2505097 L19.5964014,9.3150478 L16.9449492,4.94026492 C16.5827628,4.38361854 15.9992318,4.0298902 15.3540778,3.96826715 C14.9918159,3.96826715 14.5676289,4.03880137 14.1965313,4.24202148 C13.2684852,4.79896993 12.9059212,5.91256476 13.480541,6.88456252 L16.0789038,11.2505097 Z M47.6388125,6.87572686 C48.2131302,5.9037291 47.8508683,4.71929798 46.8520615,4.23348789 C45.8446456,3.67653944 44.6248718,4.09189083 44.041643,4.93142926 L41.461027,9.30621215 L44.9785247,11.2415986 L47.6388125,6.87572686 Z M9.61852829,17.5606791 L5.01394282,14.99781 C4.80188705,14.856515 4.51008382,14.7945143 4.29802806,14.7945143 C3.51157909,14.7237536 2.71591687,15.0685707 2.29172982,15.7665121 C1.71741213,16.7477231 2.00913984,17.8524068 3.0077201,18.4091287 L7.61223006,20.9719978 L9.61852829,17.5606791 Z M50.0689958,31.7366219 C50.0689958,21.9797157 41.4698627,14.1140177 30.9265076,14.1140177 C20.3651791,14.1140177 11.7837928,21.9885514 11.7837928,31.7366219 L11.7837928,52.3906115 L50.0689958,52.3906115 L50.0689958,31.7366219 Z M46.4809639,48.8023532 L15.3806603,48.8023532 L15.3806603,30.8616653 C15.3806603,23.8178344 23.7147992,17.6846048 30.9350412,17.6846048 C38.1556607,17.6846048 46.4897996,23.8089233 46.4897996,30.8616653 L46.4809639,48.8023532 Z M57.1216623,56.4116661 L4.73105076,56.4116661 C4.17440438,56.4116661 3.72363485,56.8624356 3.72363485,57.4193841 L3.72363485,58.992282 C3.72363485,59.5492305 4.17440438,60 4.73105076,60 L57.1216623,60 C57.6783087,60 58.1290782,59.5492305 58.1290782,58.992282 L58.1290782,57.4193841 C58.1290782,56.8712713 57.6783087,56.4116661 57.1216623,56.4116661 Z M41.6377402,27.6536423 C41.0102575,27.4503466 40.3297609,27.5385522 39.7642034,27.8922805 C39.348852,28.1571992 39.0394529,28.5462701 38.8804111,29.0055733 L33.1623063,35.3423251 L26.0213587,31.0472141 C25.588336,31.0383785 25.1729846,31.1623042 24.8018871,31.3918047 C24.2183561,31.7632044 23.8560942,32.3641046 23.8030047,33.0446012 L18.253004,41.3345618 C18.1644964,42.5097796 19.0659599,43.5174976 20.250391,43.5968675 C20.7188319,43.6233745 21.178135,43.508662 21.5761171,43.2522769 C22.1592705,42.8811793 22.5215324,42.279977 22.5746219,41.5994804 L26.6576771,35.7400051 L34.6469987,39.6462717 C35.0800214,39.6551828 35.5042085,39.5315592 35.8667725,39.3017566 C36.2821239,39.0365358 36.600132,38.6477669 36.7505647,38.1881617 L42.9811376,30.340135 C43.1666864,29.80116 43.1312683,29.2265402 42.8752608,28.7141476 C42.6277113,28.2102886 42.185853,27.8302799 41.6377402,27.6536423 Z" id="业绩预警-copy" fill="#FFEBC8"></path>
    </g>
</svg>