<?xml version="1.0" encoding="UTF-8" standalone="no"?>
<svg width="60px" height="60px" viewBox="0 0 60 60" version="1.1" xmlns="http://www.w3.org/2000/svg" xmlns:xlink="http://www.w3.org/1999/xlink">
    <!-- Generator: Sketch 47.1 (45422) - http://www.bohemiancoding.com/sketch -->
    <title>业绩归因</title>
    <desc>Created with Sketch.</desc>
    <defs></defs>
    <g id="Page-1" stroke="none" stroke-width="1" fill="none" fill-rule="evenodd">
        <path d="M52.0190943,34.0903022 L48.6186867,36.8988614 C51.7928993,40.1511368 52.9727696,42.6065426 52.5196994,43.4382768 C51.8666252,44.6440831 46.4940697,44.7922153 37.9563152,41.7316103 C38.465509,37.9611273 38.7269938,33.9425102 38.7269938,30.002296 C38.7269938,26.6496784 38.5396601,23.2492708 38.1695848,19.9883218 C46.1676176,16.7666592 51.2962908,16.6533916 51.9931584,17.7940605 C52.4851749,18.6081923 51.4314976,21.1160652 48.4316931,24.5251465 L51.9713042,27.1549606 C55.7590494,22.7922039 57.5876571,18.5952669 55.7111743,15.5256482 C53.1946278,11.3941036 45.8062159,12.2866383 37.529521,15.5169745 C35.9752385,6.77028739 32.8841057,0 28.04702,0 C24.6159995,0 22.0692653,3.41766985 20.3233973,8.51181855 L24.6250133,9.60435723 C25.8613474,6.18235056 27.2022753,4.34940603 28.04702,4.34940603 C29.3836962,4.34940603 31.9566214,8.78588861 33.3760373,17.2934554 C30.4024239,18.6779216 27.3982826,20.289008 24.5379367,22.034876 C21.1853192,24.081005 17.902516,26.384282 14.9595154,28.7742954 C9.13388962,23.9504752 6.84387819,20.0581361 7.44048867,18.9609204 C7.84508853,18.2165179 10.0918168,17.9159167 13.6922284,18.4557233 L14.7807704,14.1544475 C9.47369228,13.2619128 5.25047923,13.8714487 3.61320185,16.8841785 C1.43212116,20.8984589 5.29826929,26.4321571 11.5852988,31.7003739 C5.64640545,37.2383239 2.12873362,42.9068037 4.49281114,46.7818806 C6.28221739,49.7119557 10.5273696,50.1039703 15.7865726,48.9413622 L14.4761725,44.7008869 C10.9146222,45.4233502 8.65054669,45.2320199 8.21108219,44.5135533 C7.56668165,43.4555391 9.61289572,39.4980626 15.1073075,34.4344417 C18.1333879,36.6373766 21.4769917,38.7360577 24.8817361,40.5862645 C27.5374861,42.0275346 30.3067587,43.355197 33.053837,44.5048796 C31.5952196,51.8365727 29.2876909,55.6461721 28.04702,55.6461721 C27.0980216,55.6461721 25.5042825,53.4346486 24.1545958,49.098168 L20.0709263,50.7483709 C21.825468,56.2600448 24.4549419,60 28.0513568,60 C32.5837597,60 35.583309,54.0657836 37.2205863,46.1202178 C46.0413396,49.2200242 53.9523809,49.9295621 56.3469862,45.5150187 C58.0623264,42.3540717 56.024786,38.2570516 52.0190943,34.0903022 Z M26.9628148,36.7593178 C23.6889403,34.982837 20.9415219,33.2197067 18.5469165,31.5130402 C20.8804662,29.6581565 23.5800096,27.725295 26.806009,25.7528069 C29.3660938,24.1900208 31.7171608,22.9619352 33.9592971,21.8737333 C34.2030945,24.3554152 34.3775027,27.0024915 34.3775027,29.9979591 C34.3775027,33.7813675 34.1293686,37.0901917 33.76363,40.0464578 C31.6214957,39.1190585 29.3879479,38.0787317 26.9628148,36.7593178 Z" id="Fill-1-Copy" fill="#FFEBC8"></path>
    </g>
</svg>