<?xml version="1.0" encoding="UTF-8" standalone="no"?>
<svg width="60px" height="60px" viewBox="0 0 60 60" version="1.1" xmlns="http://www.w3.org/2000/svg" xmlns:xlink="http://www.w3.org/1999/xlink">
    <!-- Generator: Sketch 47.1 (45422) - http://www.bohemiancoding.com/sketch -->
    <title>投资工具</title>
    <desc>Created with Sketch.</desc>
    <defs></defs>
    <g id="Page-1" stroke="none" stroke-width="1" fill="none" fill-rule="evenodd">
        <path d="M49.7008541,57.5300039 C49.1685715,57.5300039 48.6393996,57.3285361 48.2367253,56.9221921 L34.3882693,43.0684847 C33.5791435,42.2589088 33.5791435,40.9488865 34.3882693,40.1384955 C35.1986541,39.3286232 36.5077715,39.3286232 37.3171935,40.1384955 L49.7008541,52.5279122 L51.8613865,50.3657828 L39.5106834,38.0093389 C38.7006689,37.1989479 38.7006689,35.8898148 39.5106834,35.0791274 C40.3198833,34.2686623 41.6292969,34.2686623 42.4396076,35.0791274 L56.2545136,48.9003806 C56.6433383,49.2887933 56.8614505,49.8161366 56.860858,50.3657828 C56.860858,50.9172073 56.645338,51.4436614 56.2545136,51.8306662 L51.1644645,56.9221921 C50.7768247,57.3114199 50.2502449,57.5300039 49.7008541,57.5300039 Z M35.0777111,5.12452064 L35.0777111,5.11903751 C35.1728806,4.8483638 35.210504,4.57717142 35.1934698,4.30627542 C35.1934698,4.30627542 35.1908036,4.30427482 35.1908036,4.30160735 C35.1763615,4.03537942 35.1057806,3.77685749 34.9897997,3.53871205 C34.9678033,3.49351332 34.9318833,3.45876216 34.9072948,3.41304476 C34.8022751,3.23039743 34.684813,3.06197658 34.5210622,2.91667378 C34.4632199,2.86169434 34.3882693,2.82635041 34.3211693,2.77863241 C34.1959307,2.69090241 34.0851341,2.5855375 33.9370104,2.52040687 C33.899387,2.50506894 33.8568755,2.49528823 33.8169561,2.48284006 C33.8169561,2.48284006 33.8116978,2.48046898 33.8091056,2.48046898 C26.423213,-0.539769496 18.0290424,1.14095643 12.3826406,6.79257609 C12.3323526,6.83970133 12.3129484,6.91009279 12.266956,6.96299754 C12.2122983,7.00819627 12.1466054,7.0255348 12.0948362,7.07821725 L1.60901064,17.5257927 C1.21988965,17.9170952 1,18.4439198 1,18.993566 C1,19.5449164 1.21811216,20.0690735 1.60901064,20.4601536 L7.96988713,26.8266542 C8.35819343,27.2150669 8.88469916,27.4332805 9.43349751,27.4335768 C9.9831846,27.4335768 10.5120603,27.2153633 10.8979966,26.8266542 L14.5261388,23.1967515 L18.9388922,27.6141495 C19.3427515,28.020864 19.8750341,28.2211462 20.4033173,28.2211462 C20.9347852,28.2211462 21.4636609,28.020864 21.8675202,27.6141495 C22.6770163,26.8063518 22.6770163,25.4946254 21.8675202,24.6841603 L15.9902676,18.8025458 C15.1802531,17.9920806 13.8717282,17.9920806 13.0625284,18.8025458 L9.43349751,22.4323743 L6.00376706,18.9952702 L15.0176873,10.0151715 C15.0729375,9.96278544 15.0899717,9.89298674 15.1350754,9.83482116 C15.1929917,9.78969653 15.260388,9.7722839 15.3139347,9.71937916 C17.9011375,7.13060332 21.2200714,5.63563678 24.68824,5.2646367 C24.5464856,5.37459558 24.4050275,5.48485085 24.2637915,5.59569888 C23.6829244,6.03709042 23.1230908,6.50337831 22.6017694,7.0255348 C22.5670344,7.06028595 22.5548883,7.10600336 22.5242267,7.14334788 C21.2779138,8.39520454 20.1979438,9.79955133 19.3152746,11.3196365 C19.1575969,11.5932 19.006881,11.8666894 18.8639417,12.1451432 L18.8894189,12.157295 C18.0938465,13.7552553 18.0938465,15.634337 18.9209693,17.2189601 C19.0196197,17.4100544 19.1466358,17.5752891 19.2923895,17.7208883 C19.3424553,17.7816472 19.3629704,17.8566326 19.4225902,17.9119085 L23.9811715,22.4766839 C24.368515,22.8659117 24.895391,23.0847921 25.4447819,23.0844957 C25.9941727,23.0844957 26.5209747,22.8659117 26.9089107,22.4766839 C27.7189992,21.6697013 27.7189992,20.3544923 26.9089107,19.5475098 L22.5670344,15.2030226 C22.3992843,14.806237 22.3940259,14.3601774 22.5968073,13.973543 C22.6069537,13.9561304 22.6043616,13.9336051 22.6148043,13.9158961 C22.7067891,13.7431036 22.7978852,13.5700146 22.8974243,13.4015938 C23.6105659,12.1726329 24.4827924,11.0391821 25.490478,10.0305094 C25.7563601,9.76450379 26.0468307,9.53613906 26.3279695,9.28776833 C28.2813509,7.65275981 30.6811772,6.64438353 33.2434952,6.49619097 C33.2811186,6.49352351 33.3109656,6.47359161 33.3482187,6.46892354 C33.5817357,6.4438049 33.8074022,6.39341943 34.02033,6.29294488 C34.0529913,6.27790333 34.0784686,6.2527106 34.1082414,6.23537207 C34.3133928,6.12482042 34.4990658,5.9916694 34.6594097,5.81398652 C34.6747406,5.79627751 34.684813,5.77138116 34.7001438,5.75604323 C34.8323442,5.59569888 34.9651371,5.43505815 35.0511229,5.23188615 C35.0681571,5.19424524 35.063269,5.15927179 35.0777111,5.12452064 Z M15.5815202,59 C13.7441197,59 11.8963504,58.5875801 10.2343283,57.8051975 C9.6230218,57.5183708 9.19020432,56.9510897 9.07474188,56.2854087 C8.96076069,55.6231361 9.17368852,54.9458961 9.65249842,54.4642703 L15.3514841,48.7608573 L13.2124296,46.6233279 L7.54928985,52.2865065 C7.06699905,52.7690215 6.38044565,52.9889393 5.7107043,52.8584557 C5.04125919,52.7388643 4.47424163,52.2957686 4.19621342,51.6746195 C2.07848873,46.9692093 3.09054399,41.3749401 6.71609398,37.7460007 C9.95570765,34.5022138 14.8753404,33.3184516 19.2701709,34.6981984 L34.7189555,19.2412698 C33.3433306,14.8563261 34.483735,9.96478604 37.7636383,6.68432143 C40.1029561,4.34161934 43.2164424,3.05212178 46.5312289,3.05212178 C48.296271,3.05212178 50.0784214,3.43564412 51.6857859,4.16037984 C52.3051652,4.44172342 52.75161,5.0058184 52.8716643,5.67587106 C52.9951995,6.34303396 52.7787907,7.03309262 52.3002771,7.51212507 L46.5515218,13.2635524 L48.6900579,15.4033789 L54.4741407,9.61920099 C54.9528765,9.13987215 55.6345418,8.92425198 56.2938404,9.04176868 C56.9589159,9.15728478 57.5283034,9.5911185 57.8135157,10.201005 C60.0455178,14.9518362 59.0690863,20.6239805 55.3839906,24.3134566 C53.0481537,26.6511942 49.9386667,27.9380984 46.6266946,27.9380984 C45.287286,27.9380984 43.9388418,27.7198108 42.6652741,27.2937572 L27.3162509,42.6493962 C28.7847493,47.0818356 27.6689334,52.0387286 24.3370387,55.3754323 C22.0029053,57.7131699 18.8911224,59 15.5815202,59 Z M15.1333719,54.8425318 C17.4845396,54.9805732 19.751573,54.1053479 21.4084107,52.4454431 C23.8660053,49.9889291 24.5126393,46.2039429 23.0183674,43.0311402 C22.6468731,42.2383841 22.8106239,41.3000288 23.4291885,40.6831773 L40.699154,23.4022946 C41.3159412,22.7852208 42.2539346,22.6225054 43.0460261,22.9938759 C46.14707,24.4537949 50.0365024,23.8037483 52.4559551,21.3839861 C54.1350114,19.7026674 54.9653189,17.4047935 54.8496343,15.1023257 L50.1539645,19.8004745 C49.7630661,20.1900727 49.2391525,20.4106573 48.6897617,20.4106573 C48.1400746,20.4112501 47.6129763,20.1912582 47.2261513,19.8004745 L42.1583948,14.7312515 C41.3489728,13.9231575 41.3489728,12.6143208 42.1583948,11.8015587 L46.7568954,7.20092069 C44.4882326,7.14594125 42.3039263,8.00382799 40.6913775,9.61631123 C38.2371898,12.0722324 37.5801871,15.7193995 39.0200237,18.9125046 C39.3710028,19.6982957 39.2022899,20.621313 38.5933533,21.2274206 L21.2533252,38.5812881 C20.6466105,39.1879884 19.7214298,39.3535195 18.9363001,39.0056375 C15.8496982,37.6131461 12.0369198,38.2846066 9.64472192,40.6805839 C7.99306849,42.3338942 7.15468829,44.5258104 7.22208458,46.7579608 L11.7479305,42.2282329 C12.5582412,41.4201389 13.8665439,41.4201389 14.6768547,42.2282329 L19.7437224,47.2974558 C20.1337322,47.6852757 20.3527331,48.2126931 20.3527331,48.7625616 C20.3527331,49.3122078 20.1348431,49.8413293 19.7437224,50.2277414 L15.1333719,54.8425318 Z" id="Fill-1-Copy-3" fill="#FFEBC8"></path>
    </g>
</svg>