<?xml version="1.0" encoding="UTF-8" standalone="no"?>
<svg width="60px" height="60px" viewBox="0 0 60 60" version="1.1" xmlns="http://www.w3.org/2000/svg" xmlns:xlink="http://www.w3.org/1999/xlink">
    <!-- Generator: Sketch 47.1 (45422) - http://www.bohemiancoding.com/sketch -->
    <title>流动性管理</title>
    <desc>Created with Sketch.</desc>
    <defs></defs>
    <g id="Page-1" stroke="none" stroke-width="1" fill="none" fill-rule="evenodd">
        <g id="流动性-copy" fill="#FFEBC8">
            <path d="M43.5473253,22.2937912 L37.8033704,16.2336953 C37.3306356,15.7345652 36.5221642,16.0879309 36.5221642,16.7935317 L36.5221642,21.5022624 C36.5221642,21.9394688 36.1862628,22.2937912 35.7718883,22.2937912 L13.7506056,22.2937912 C13.3361487,22.2937912 13,22.6482005 13,23.0857548 L13,25.2083843 C13,25.6455906 13.3359014,26 13.7506056,26 L45.2480991,26 C45.9165222,26 46.2514345,25.1468953 45.7787821,24.6485479 L43.5473253,22.2937912 Z" id="Fill-1"></path>
            <path d="M15.4525295,37.7061218 L21.1963616,43.7666523 C21.6689971,44.2649997 22.4774396,43.9124168 22.4774396,43.206816 L22.4774396,38.4977375 C22.4774396,38.060879 22.8136587,37.7061218 23.2280185,37.7061218 L45.2491739,37.7061218 C45.6638633,37.7061218 46,37.3517994 46,36.9142451 L46,34.7919636 C46,34.3546703 45.6638633,34 45.2491739,34 L13.7518164,34 C13.0830875,34 12.7485169,34.8527568 13.2215645,35.3521478 L15.4525295,37.7061218 Z" id="Fill-2"></path>
            <path d="M29.9998328,60 C13.4579822,60 0,46.5423521 0,29.9998328 C0,13.4580658 13.4579822,0 29.9998328,0 C46.5416835,0 60,13.4580658 60,29.9998328 C60,46.5423521 46.5416835,60 29.9998328,60 Z M29.9998405,3.72766973 C15.5135151,3.72766973 3.72766781,15.5132778 3.72766781,29.9998424 C3.72766781,44.4861679 15.5132759,56.2724138 29.9998405,56.2724138 C44.4864849,56.2724138 56.2723322,44.4861679 56.2723322,29.9998424 C56.2723322,15.5135968 44.4864849,3.72766973 29.9998405,3.72766973 Z" id="Fill-4"></path>
        </g>
    </g>
</svg>