<?xml version="1.0" encoding="UTF-8" standalone="no"?>
<svg width="60px" height="60px" viewBox="0 0 60 60" version="1.1" xmlns="http://www.w3.org/2000/svg" xmlns:xlink="http://www.w3.org/1999/xlink">
    <!-- Generator: Sketch 47.1 (45422) - http://www.bohemiancoding.com/sketch -->
    <title>镜像功能</title>
    <desc>Created with Sketch.</desc>
    <defs></defs>
    <g id="Page-1" stroke="none" stroke-width="1" fill="none" fill-rule="evenodd">
        <path d="M31.6670494,0 L2.19724435,0 C1.02024588,0 0.0625258035,0.957640428 0.0625258035,2.13471855 L0.0625258035,24.1777326 C0.0625258035,25.3547311 1.01992728,26.3124511 2.19724435,26.3124511 L31.6670494,26.3124511 C32.8441276,26.3124511 33.801768,25.3550497 33.801768,24.1777326 L33.801768,2.13471855 C33.801768,0.957640428 32.8441276,0 31.6670494,0 Z M3.68758869,22.6873882 L30.1767051,22.6873882 L30.1767051,3.62506289 L3.68758869,3.62506289 L3.68758869,22.6873882 Z M57.7918435,33.7498357 L28.44709,33.7498357 C27.2700916,33.7498357 26.3124511,34.7074761 26.3124511,35.8847932 L26.3124511,57.8652815 C26.3124511,59.0423596 27.2700916,60 28.44709,60 L57.7918435,60 C58.9689216,60 59.926562,59.0423596 59.926562,57.8652815 L59.926562,35.8847932 C59.926562,34.7074761 58.9692402,33.7498357 57.7918435,33.7498357 Z M29.9374344,56.3749371 L56.3018178,56.3749371 L56.3018178,37.374819 L29.9374344,37.374819 L29.9374344,56.3749371 Z M15.1560158,45.187438 L7.58832268,45.187438 L7.58832268,37.6250018 L11.3384372,37.6250018 L5.71334508,30.0625656 L0,37.6250018 L3.83844713,37.6250018 L3.83844713,48.9372339 L15.1560158,48.9372339 L15.1560158,52.499771 L22.6873882,47.062336 L15.1560158,41.3122719 L15.1560158,45.187438 Z" id="Fill-1-Copy-2" fill="#FFEBC8"></path>
    </g>
</svg>